o space_frigate_6
v -0.150946 0.037182 0.008310
v 0.200474 0.059934 0.018516
v -0.154248 0.064997 0.009815
v 0.200474 0.059934 0.000000
v 0.200474 0.086727 0.000000
v 0.127089 0.041381 0.032867
v 0.028412 0.036202 0.033860
v -0.058389 0.075007 0.027855
v 0.034030 0.087518 0.035060
v 0.127089 0.087518 0.034066
v -0.055087 0.035295 0.000000
v 0.127089 0.041381 0.000000
v 0.200474 0.086727 0.017659
v -0.055087 0.035295 0.026656
v 0.028296 0.046252 0.047392
v 0.125866 0.050670 0.046516
v 0.146517 0.059974 0.048372
v 0.146517 0.068056 0.048372
v 0.131019 0.075115 0.046314
v 0.005968 0.068188 0.051023
v 0.005968 0.062622 0.051023
v 0.165907 0.061953 0.165523
v 0.166389 0.065559 0.165493
v 0.122157 0.065559 0.185406
v 0.121368 0.061676 0.185378
v -0.055087 0.068478 0.043041
v -0.150946 0.054482 0.015289
v 0.200474 0.067540 0.023907
v -0.150946 0.037182 0.000000
v 0.106146 0.106377 0.018815
v -0.046125 0.096934 0.000000
v -0.046125 0.096934 0.012604
v 0.054345 0.109603 0.019535
v 0.000417 0.108031 0.018006
v -0.154248 0.064997 0.000000
v -0.128638 0.067657 0.000000
v -0.131054 0.067657 0.010550
v -0.058397 0.073974 0.023373
v -0.047995 0.093122 0.010146
v -0.048881 0.093122 0.000000
v 0.109392 0.103454 0.016212
v 0.127522 0.086812 0.029529
v 0.170674 0.087469 0.018687
v 0.127746 0.073077 0.094585
v 0.080761 0.073077 0.110380
v 0.034030 0.087518 0.057072
v 0.127089 0.087518 0.056079
v 0.117143 0.087518 0.039547
v 0.038357 0.087518 0.040432
v 0.038357 0.087518 0.051591
v 0.117143 0.087518 0.050707
v 0.133355 0.136919 0.044381
v 0.094957 0.136919 0.044555
v 0.094957 0.136919 0.046758
v 0.133355 0.136919 0.046583
v 0.029321 0.073290 0.056648
v 0.007789 0.068404 0.079306
v 0.007560 0.062566 0.079298
v 0.200474 0.067558 0.020700
v 0.200474 0.062978 0.016332
v 0.200474 0.062978 0.000000
v 0.200474 0.083683 0.000000
v 0.200474 0.083683 0.015448
v 0.191028 0.067558 0.020700
v 0.191028 0.062978 0.016332
v 0.191028 0.062978 0.000000
v 0.191028 0.083683 0.000000
v 0.191028 0.083683 0.015448
v -0.150946 0.039962 0.000000
v -0.150946 0.039962 0.006434
v -0.150946 0.054334 0.012232
v -0.150946 0.062218 0.008128
v -0.150946 0.062218 0.000000
v -0.141530 0.039962 0.000000
v -0.141530 0.039962 0.006434
v -0.141530 0.054334 0.012232
v -0.141530 0.062218 0.008128
v -0.141530 0.062218 0.000000
v 0.080525 0.080176 0.104468
v 0.126193 0.080176 0.090327
v 0.005605 0.074906 0.032762
v 0.028412 0.036202 0.000000
v 0.028412 0.036202 -0.033860
v -0.055087 0.035295 -0.026656
v -0.046125 0.096934 -0.012604
v 0.000417 0.108031 -0.018006
v 0.000417 0.108031 0.000000
v 0.191028 0.083683 -0.015448
v 0.191028 0.062978 -0.016332
v -0.141530 0.039962 -0.006434
v -0.141530 0.062218 -0.008128
v 0.200474 0.059934 -0.018516
v 0.127089 0.041381 -0.032867
v -0.150946 0.037182 -0.008310
v 0.054345 0.109603 -0.019535
v 0.106146 0.106377 -0.018815
v 0.106146 0.106377 0.000000
v 0.054345 0.109603 0.000000
v 0.121368 0.061676 -0.185378
v 0.165907 0.061953 -0.165523
v 0.166389 0.065559 -0.165493
v 0.122157 0.065559 -0.185406
v -0.150946 0.054482 -0.015289
v -0.055087 0.068478 -0.043041
v 0.125866 0.050670 -0.046516
v 0.028296 0.046252 -0.047392
v 0.146517 0.059974 -0.048372
v 0.200474 0.067540 -0.023907
v 0.200474 0.086727 -0.017659
v 0.146517 0.068056 -0.048372
v 0.127089 0.087518 -0.034066
v 0.131019 0.075115 -0.046314
v 0.034030 0.087518 -0.035060
v 0.005605 0.074906 -0.032762
v 0.005968 0.068188 -0.051023
v 0.034030 0.087518 -0.057072
v 0.005968 0.062622 -0.051023
v 0.127746 0.073077 -0.094585
v 0.007789 0.068404 -0.079306
v 0.029321 0.073290 -0.056648
v 0.007560 0.062566 -0.079298
v -0.058389 0.075007 -0.027855
v -0.154248 0.064997 -0.009815
v -0.131939 0.067657 -0.010550
v -0.059282 0.073974 -0.023373
v -0.048881 0.093122 -0.010146
v 0.127522 0.086812 -0.029529
v 0.109392 0.103454 -0.016212
v 0.170674 0.087469 -0.018687
v 0.170674 0.087469 0.000000
v 0.109392 0.103454 0.000000
v 0.080761 0.073077 -0.110380
v 0.133355 0.136919 -0.044381
v 0.094957 0.136919 -0.044555
v 0.094957 0.136919 -0.046758
v 0.133355 0.136919 -0.046583
v 0.127089 0.087518 -0.056079
v 0.080525 0.080176 -0.104468
v 0.126193 0.080176 -0.090327
v 0.038357 0.087518 -0.040432
v 0.117143 0.087518 -0.039547
v 0.038357 0.087518 -0.051591
v 0.117143 0.087518 -0.050707
v 0.200474 0.062978 -0.016332
v 0.200474 0.067558 -0.020700
v 0.200474 0.083683 -0.015448
v 0.191028 0.067558 -0.020700
v -0.150946 0.039962 -0.006434
v -0.150946 0.054334 -0.012232
v -0.150946 0.062218 -0.008128
v -0.141530 0.054334 -0.012232
vt 0.489329 0.329477
vt 0.489328 0.419322
vt 0.267761 0.400206
vt 0.267761 0.329476
vt 0.162391 0.247822
vt 0.162127 0.295599
vt 0.043676 0.294940
vt 0.043861 0.261500
vt 0.819348 0.215699
vt 0.874288 0.215699
vt 0.874288 0.256605
vt 0.819348 0.258949
vt 0.952139 0.329481
vt 0.952138 0.378611
vt 0.751291 0.416687
vt 0.751292 0.329478
vt 0.443267 0.247229
vt 0.442992 0.297151
vt 0.305277 0.296390
vt 0.305564 0.244556
vt 0.967351 0.436712
vt 0.996402 0.481690
vt 0.826049 0.505599
vt 0.827450 0.587838
vt 0.805205 0.546012
vt 0.876061 0.601385
vt 0.901844 0.605051
vt 0.895154 0.665972
vt 0.913239 0.864961
vt 0.901609 0.862270
vt 0.098818 0.044020
vt 0.209413 0.085373
vt 0.041333 0.091009
vt 0.831500 0.270538
vt 0.016437 0.417444
vt 0.275029 0.432080
vt 0.275975 0.530240
vt 0.016213 0.466882
vt 0.758987 0.428684
vt 0.962828 0.413255
vt 0.816896 0.487257
vt 0.439901 0.524232
vt 0.438799 0.537640
vt 0.439585 0.524054
vt 0.496987 0.438969
vt 0.256175 0.169826
vt 0.502528 0.186402
vt 0.443222 0.247228
vt 0.008942 0.168055
vt 0.169232 0.151018
vt 0.163071 0.247398
vt 0.044767 0.236446
vt 0.163131 0.247933
vt 0.814415 0.172660
vt 0.831208 0.172660
vt 0.831208 0.211110
vt 0.814415 0.211110
vt 0.728510 0.172660
vt 0.769416 0.172660
vt 0.769416 0.211110
vt 0.728510 0.211110
vt 0.163031 0.248020
vt 0.872751 0.931610
vt 0.866236 0.920023
vt 0.901333 0.862207
vt 0.839311 0.931610
vt 0.839383 0.920023
vt 0.020646 0.063096
vt 0.095647 0.023043
vt 0.097687 0.035092
vt 0.032197 0.070066
vt 0.293008 0.052381
vt 0.213946 0.055379
vt 0.097666 0.034965
vt 0.296397 0.099113
vt 0.217532 0.104833
vt 0.874458 0.172661
vt 0.874458 0.211110
vt 0.020370 0.113018
vt 0.031959 0.113082
vt 0.209139 0.134955
vt 0.041095 0.134025
vt 0.820098 0.100032
vt 0.840280 0.114336
vt 0.832202 0.120132
vt 0.820050 0.108542
vt 0.840280 0.163466
vt 0.832202 0.163382
vt 0.769185 0.163466
vt 0.769185 0.116612
vt 0.777263 0.122476
vt 0.777263 0.163381
vt 0.540394 0.581304
vt 0.540164 0.538278
vt 0.797043 0.498743
vt 0.802183 0.527396
vt 0.817003 0.487202
vt 0.967238 0.436767
vt 0.378493 0.602297
vt 0.379118 0.551177
vt 0.867499 0.662039
vt 0.895750 0.856335
vt 0.842103 0.897527
vt 0.843182 0.667014
vt 0.815242 0.897526
vt 0.815249 0.667013
vt 0.844315 0.081024
vt 0.785260 0.085519
vt 0.785260 0.064027
vt 0.844315 0.064028
vt 0.013478 0.351526
vt 0.013478 0.329475
vt 0.634246 0.311758
vt 0.635061 0.321374
vt 0.506453 0.316228
vt 0.504990 0.305829
vt 0.297138 0.544003
vt 0.286467 0.601354
vt 0.715080 0.159076
vt 0.613211 0.157236
vt 0.613290 0.151392
vt 0.715159 0.153233
vt 0.135562 0.728091
vt 0.019344 0.666585
vt 0.030096 0.647024
vt 0.142927 0.704910
vt 0.806178 0.096408
vt 0.758401 0.472604
vt 0.499469 0.483618
vt 0.499379 0.481985
vt 0.308793 0.634040
vt 0.669752 0.290005
vt 0.460726 0.286092
vt 0.465452 0.017062
vt 0.674478 0.020956
vt 0.092451 0.318874
vt 0.092174 0.303383
vt 0.871713 0.064028
vt 0.871713 0.081025
vt 0.871712 0.122147
vt 0.871712 0.145730
vt 0.844314 0.145729
vt 0.844315 0.122147
vt 0.794338 0.644405
vt 0.679892 0.876934
vt 0.348617 0.830529
vt 0.354474 0.701269
vt 0.648206 0.928238
vt 0.362484 0.625838
vt 0.291451 0.738304
vt 0.077396 0.760472
vt 0.569177 0.943286
vt 0.503753 0.980371
vt 0.521928 0.898417
vt 0.810277 0.572049
vt 0.738504 0.549797
vt 0.100291 0.887127
vt 0.327434 0.864811
vt 0.413741 0.165480
vt 0.414142 0.135873
vt 0.703379 0.014517
vt 0.720863 0.151962
vt 0.863882 0.015441
vt 0.863881 0.037492
vt 0.856507 0.032514
vt 0.856507 0.015517
vt 0.817978 0.056009
vt 0.818369 0.047898
vt 0.790077 0.041484
vt 0.797452 0.037009
vt 0.790077 0.015441
vt 0.797452 0.015517
vt 0.393014 0.659597
vt 0.100512 0.887105
vt 0.947278 0.275558
vt 0.949387 0.296880
vt 0.635057 0.321336
vt 0.017041 0.304601
vt 0.017250 0.319366
vt 0.044252 0.555484
vt 0.054573 0.497754
vt 0.283318 0.556003
vt 0.077976 0.516735
vt 0.278083 0.585147
vt 0.072741 0.545879
vt 0.871712 0.167221
vt 0.844314 0.167221
vt 0.019556 0.502785
vt 0.002002 0.546829
vn 0.027400 -0.999600 -0.000000
vn 0.039900 -0.999200 0.000000
vn 0.000600 -1.000000 0.000000
vn -0.007500 -1.000000 -0.000000
vn -0.118200 0.993000 0.000000
vn -0.129300 0.991600 0.000000
vn -0.248600 0.968600 -0.000000
vn 1.000000 0.000000 0.000000
vn 0.245100 -0.969500 0.000000
vn 0.158100 -0.987400 -0.000000
vn 0.105600 -0.994400 0.000000
vn 0.062200 0.998100 0.000000
vn 0.016500 0.999900 0.000000
vn 0.015800 0.999900 0.000000
vn 0.398200 0.284000 0.872200
vn 0.259000 0.565700 0.782900
vn 0.318200 0.451700 0.833500
vn 0.159100 0.718800 0.676800
vn 0.174300 0.690300 0.702200
vn -0.115200 0.993300 0.000000
vn -0.091300 0.994400 -0.053500
vn -0.117100 0.990800 0.067700
vn -0.060100 0.973500 -0.220700
vn -0.083200 0.994000 -0.071600
vn 0.159600 0.716900 0.678600
vn 0.398200 0.284000 -0.872200
vn 0.318200 0.451700 -0.833500
vn 0.259000 0.565700 -0.782900
vn 0.174300 0.690200 -0.702300
vn 0.159100 0.718800 -0.676800
vn -0.117100 0.990800 -0.067700
vn -0.091300 0.994400 0.053500
vn -0.083200 0.994000 0.071600
vn -0.060100 0.973500 0.220700
vn 0.159600 0.716900 -0.678600
vn -0.188300 -0.412500 0.891300
vn -0.136600 -0.484300 0.864200
vn -0.177800 -0.403600 0.897500
vn -0.209100 -0.365800 0.906900
vn 0.196300 -0.803600 0.561900
vn 0.304200 -0.777200 0.550800
vn 0.303400 -0.777000 0.551500
vn -0.134900 -0.510800 0.849000
vn -0.129600 0.000000 0.991600
vn -0.033500 -0.723100 0.689900
vn -0.037900 0.563700 0.825100
vn 0.008300 0.634300 0.773000
vn 0.022800 0.600900 0.799000
vn 0.002700 0.573400 0.819300
vn -0.137100 0.487600 0.862200
vn -0.128100 0.386700 0.913200
vn -0.132400 0.494500 0.859000
vn -0.255400 0.644300 0.720900
vn 0.000000 0.690200 -0.723700
vn 0.000000 -1.000000 0.000000
vn -0.188300 -0.412500 -0.891300
vn -0.209100 -0.365800 -0.906900
vn -0.177800 -0.403600 -0.897500
vn -0.136600 -0.484300 -0.864200
vn 0.303500 -0.777000 -0.551400
vn 0.304200 -0.777200 -0.550800
vn 0.196300 -0.803600 -0.561900
vn -0.129600 0.000000 -0.991600
vn -0.134900 -0.510800 -0.849000
vn -0.033500 -0.723100 -0.689900
vn -0.037900 0.563700 -0.825100
vn 0.002700 0.573400 -0.819300
vn 0.022800 0.600900 -0.799000
vn 0.008300 0.634300 -0.773000
vn -0.137100 0.487600 -0.862200
vn -0.255400 0.644300 -0.720900
vn -0.132400 0.494500 -0.859000
vn -0.128100 0.386700 -0.913200
vn 0.000000 0.690200 0.723700
vn -0.882000 0.470600 -0.023200
vn -0.872800 0.488100 0.000000
vn -0.880600 0.473400 -0.019600
vn -0.891700 0.449900 -0.049900
vn 0.678100 0.734800 -0.016200
vn 0.136100 0.990600 -0.009100
vn 0.400000 0.912400 -0.086500
vn 0.670800 0.741600 0.003800
vn 0.025600 0.999500 0.020600
vn 0.012600 0.999900 0.000200
vn 0.024900 0.999700 0.000000
vn 0.000000 1.000000 0.000000
vn 0.000000 -0.309600 -0.950900
vn 0.669200 0.743100 0.000000
vn -0.882000 0.470600 0.023200
vn -0.891700 0.449900 0.049900
vn -0.880700 0.473300 0.019600
vn 0.678100 0.734800 0.016200
vn 0.671000 0.741400 -0.004200
vn 0.400000 0.912400 0.086500
vn 0.136100 0.990600 0.009100
vn 0.012600 0.999900 -0.000200
vn 0.025600 0.999500 -0.020600
vn 0.000000 -0.309600 0.950900
vn 0.252400 0.967600 -0.000000
vn -0.189800 0.804700 0.562500
vn -0.092000 0.921200 0.378100
vn -0.241200 0.748600 0.617600
vn -0.308400 0.439200 0.843800
vn 0.428600 -0.293600 0.854500
vn 0.411100 -0.527100 0.743700
vn 0.428600 -0.293600 0.854400
vn 0.413000 0.000000 0.910800
vn -0.036000 0.929000 0.368300
vn -0.026400 0.938000 0.345600
vn -0.189800 0.804700 -0.562500
vn -0.308400 0.439200 -0.843800
vn -0.241200 0.748600 -0.617600
vn -0.092000 0.921200 -0.378100
vn 0.428600 -0.293600 -0.854500
vn 0.413000 0.000000 -0.910800
vn 0.428600 -0.293600 -0.854400
vn 0.411100 -0.527100 -0.743700
vn -0.026400 0.938000 -0.345600
vn -0.036000 0.929000 -0.368300
vn -0.188000 0.625300 0.757400
vn -0.188000 0.625300 -0.757400
vn -0.293100 0.956100 0.000000
vn -1.000000 0.000000 0.000000
vn -0.019700 -0.999800 0.000000
vn 0.408000 -0.069100 0.910400
vn 0.410000 -0.047400 0.910800
vn 0.408000 -0.069100 0.910300
vn 0.406000 -0.089000 0.909500
vn -0.503200 0.851600 0.146600
vn -0.405500 0.855200 0.322700
vn -0.567300 0.823500 0.000000
vn 0.249500 0.584500 0.772100
vn 0.268600 0.538000 0.799000
vn 0.230300 0.627300 0.743900
vn 0.408000 -0.069100 -0.910400
vn 0.406000 -0.089000 -0.909500
vn 0.408000 -0.069100 -0.910300
vn 0.410000 -0.047400 -0.910800
vn -0.503200 0.851600 -0.146600
vn -0.405500 0.855200 -0.322700
vn 0.249500 0.584500 -0.772100
vn 0.230300 0.627300 -0.743900
vn 0.268600 0.538000 -0.799000
vn 0.071000 -0.811600 0.579800
vn -0.057500 -0.801700 0.595000
vn -0.670300 0.313700 0.672600
vn -0.631200 0.483900 0.606200
vn -0.682600 0.205000 0.701400
vn -0.008900 0.096900 -0.995300
vn -0.011200 0.095900 -0.995300
vn -0.008800 0.096900 -0.995300
vn -0.004500 0.098800 -0.995100
vn 0.009000 0.083700 0.996400
vn 0.011200 0.079500 0.996800
vn 0.008900 0.083800 0.996400
vn 0.004500 0.092200 0.995700
vn -0.678800 0.068400 0.731200
vn -0.672500 0.131400 0.728400
vn -0.681500 0.025700 0.731400
vn 0.000000 -0.461800 -0.887000
vn -0.057500 -0.801700 -0.595000
vn 0.071000 -0.811600 -0.579800
vn -0.670300 0.313700 -0.672600
vn -0.682600 0.205000 -0.701400
vn -0.631200 0.483900 -0.606200
vn -0.008600 0.097000 0.995200
vn -0.004500 0.098800 0.995100
vn -0.008900 0.096900 0.995300
vn -0.011200 0.095900 0.995300
vn 0.009000 0.083700 -0.996400
vn 0.004500 0.092200 -0.995700
vn 0.008900 0.083800 -0.996400
vn 0.011200 0.079500 -0.996800
vn -0.678800 0.068400 -0.731200
vn -0.681500 0.025700 -0.731400
vn -0.672500 0.131400 -0.728400
vn 0.000000 -0.461800 0.887000
vn -0.050900 -0.990100 0.130800
vn 0.114600 -0.991900 0.055500
vn 0.088700 -0.993900 0.065200
vn -0.100200 -0.979100 0.177000
vn 0.414100 -0.908700 -0.053200
vn 0.259400 0.965800 0.000400
vn 0.108600 0.992400 0.057100
vn 0.120500 0.991900 0.039500
vn -0.214900 0.976600 0.006400
vn -0.135000 0.981300 0.137300
vn -0.133100 0.987300 0.086400
vn -0.587600 -0.808500 0.031500
vn -0.313500 -0.912500 0.262800
vn -0.025500 0.993000 0.115500
vn -0.067000 0.989900 0.125100
vn -0.657600 0.753400 0.000000
vn 0.950100 -0.311800 0.000000
vn 0.406300 0.911300 0.066000
vn -0.050900 -0.990100 -0.130800
vn -0.100200 -0.979100 -0.177000
vn 0.088700 -0.993900 -0.065200
vn 0.114600 -0.991900 -0.055500
vn 0.414100 -0.908700 0.053200
vn 0.259400 0.965800 -0.000400
vn 0.120500 0.991900 -0.039500
vn 0.108600 0.992400 -0.057100
vn -0.214900 0.976600 -0.006400
vn -0.133100 0.987300 -0.086400
vn -0.135000 0.981300 -0.137300
vn -0.587600 -0.808500 -0.031500
vn -0.313500 -0.912500 -0.262800
vn -0.025500 0.993000 -0.115500
vn -0.067000 0.989900 -0.125100
vn 0.406300 0.911300 -0.066000
vn 0.985400 -0.041000 -0.165200
vn 0.985900 0.000000 -0.167300
vn 0.985400 -0.041100 -0.165200
vn 0.978300 -0.132100 -0.159700
vn -0.998000 0.020000 0.060200
vn -0.997700 0.039000 0.056300
vn -0.997900 0.000000 0.064300
vn 0.016000 0.989000 0.147100
vn 0.001300 0.992300 0.123500
vn 0.018300 0.985800 0.167100
vn 0.065300 0.975300 0.210800
vn 0.000000 0.374100 -0.927400
vn 0.985400 -0.041000 0.165200
vn 0.978300 -0.132100 0.159700
vn 0.985400 -0.041100 0.165200
vn 0.985900 0.000000 0.167300
vn -0.998000 0.020000 -0.060200
vn -0.997900 0.000000 -0.064300
vn -0.997700 0.039000 -0.056300
vn 0.016000 0.989000 -0.147100
vn 0.065300 0.975300 -0.210800
vn 0.018300 0.985800 -0.167100
vn 0.001300 0.992300 -0.123500
vn 0.000000 0.374100 0.927400
vn 0.953300 0.302100 0.000000
vn 0.962800 0.265700 0.050000
vn 0.963100 0.263000 0.057900
vn 0.965300 0.249600 0.077100
vn 0.963500 0.256600 0.076200
vn 0.963100 0.263000 -0.057900
vn 0.962800 0.265700 -0.050000
vn 0.963500 0.256600 -0.076200
vn 0.965300 0.249600 -0.077100
vn -0.244600 0.052100 0.968200
vn -0.244600 0.052100 -0.968200
usemtl Cabin
f 37/28/22 36/101/20 35/26/20
f 35/26/20 36/101/20 124/28/31
f 38/102/120 39/103/120 37/104/120
f 125/102/121 124/104/121 126/103/121
f 40/105/122 36/106/122 37/104/122
f 37/104/122 39/103/122 40/105/122
f 40/105/122 126/103/122 124/104/122
f 124/104/122 36/106/122 40/105/122
